<svg width="124" height="47" viewBox="0 0 124 47" fill="none" xmlns="http://www.w3.org/2000/svg">
<rect width="124" height="47" rx="23.5" fill="#1B4DB1"/>
<path d="M35.2109 25.5469C35.2109 25.3281 35.1771 25.1328 35.1094 24.9609C35.0469 24.7839 34.9297 24.625 34.7578 24.4844C34.5911 24.3385 34.3542 24.1979 34.0469 24.0625C33.7448 23.9219 33.3542 23.776 32.875 23.625C32.3438 23.4583 31.849 23.2708 31.3906 23.0625C30.9323 22.8542 30.5286 22.612 30.1797 22.3359C29.8359 22.0599 29.5677 21.7422 29.375 21.3828C29.1823 21.0182 29.0859 20.5964 29.0859 20.1172C29.0859 19.6484 29.1849 19.2214 29.3828 18.8359C29.5859 18.4505 29.8724 18.1198 30.2422 17.8438C30.612 17.5625 31.0469 17.3464 31.5469 17.1953C32.0521 17.0443 32.6094 16.9688 33.2188 16.9688C34.0625 16.9688 34.7917 17.1224 35.4062 17.4297C36.026 17.737 36.5052 18.1536 36.8438 18.6797C37.1823 19.2057 37.3516 19.7969 37.3516 20.4531H35.2109C35.2109 20.099 35.1354 19.7865 34.9844 19.5156C34.8385 19.2448 34.6146 19.0312 34.3125 18.875C34.0156 18.7188 33.6406 18.6406 33.1875 18.6406C32.75 18.6406 32.3854 18.7057 32.0938 18.8359C31.8073 18.9661 31.5911 19.1432 31.4453 19.3672C31.3047 19.5911 31.2344 19.8411 31.2344 20.1172C31.2344 20.3255 31.2839 20.513 31.3828 20.6797C31.4818 20.8411 31.6302 20.9948 31.8281 21.1406C32.026 21.2812 32.2708 21.4141 32.5625 21.5391C32.8594 21.6589 33.2031 21.7786 33.5938 21.8984C34.2188 22.0859 34.7656 22.2943 35.2344 22.5234C35.7083 22.7526 36.1016 23.013 36.4141 23.3047C36.7318 23.5964 36.9688 23.9245 37.125 24.2891C37.2865 24.6536 37.3672 25.0677 37.3672 25.5312C37.3672 26.0208 37.2708 26.4583 37.0781 26.8438C36.8854 27.2292 36.6094 27.5573 36.25 27.8281C35.8906 28.099 35.4583 28.3047 34.9531 28.4453C34.4531 28.5859 33.8932 28.6562 33.2734 28.6562C32.7214 28.6562 32.1745 28.5833 31.6328 28.4375C31.0964 28.2865 30.6094 28.0625 30.1719 27.7656C29.7344 27.4635 29.3854 27.0833 29.125 26.625C28.8646 26.1615 28.7344 25.6198 28.7344 25H30.8906C30.8906 25.3594 30.9479 25.6667 31.0625 25.9219C31.1823 26.1719 31.349 26.3776 31.5625 26.5391C31.7812 26.6953 32.0365 26.8099 32.3281 26.8828C32.6198 26.9557 32.9349 26.9922 33.2734 26.9922C33.7109 26.9922 34.0703 26.9323 34.3516 26.8125C34.638 26.6875 34.8516 26.5156 34.9922 26.2969C35.138 26.0781 35.2109 25.8281 35.2109 25.5469ZM41.0547 20.0469V28.5H38.9844V20.0469H41.0547ZM38.8438 17.8359C38.8438 17.5286 38.9479 17.2734 39.1562 17.0703C39.3698 16.8672 39.6562 16.7656 40.0156 16.7656C40.375 16.7656 40.6589 16.8672 40.8672 17.0703C41.0807 17.2734 41.1875 17.5286 41.1875 17.8359C41.1875 18.138 41.0807 18.3906 40.8672 18.5938C40.6589 18.7969 40.375 18.8984 40.0156 18.8984C39.6562 18.8984 39.3698 18.7969 39.1562 18.5938C38.9479 18.3906 38.8438 18.138 38.8438 17.8359ZM48.3984 20.0469H50.2734V28.2422C50.2734 29.0078 50.1068 29.6562 49.7734 30.1875C49.4453 30.724 48.9844 31.1302 48.3906 31.4062C47.7969 31.6875 47.1068 31.8281 46.3203 31.8281C45.9818 31.8281 45.6146 31.7812 45.2188 31.6875C44.8281 31.5938 44.4505 31.4453 44.0859 31.2422C43.7266 31.0443 43.4271 30.7865 43.1875 30.4688L44.1172 29.25C44.3984 29.5781 44.7161 29.8255 45.0703 29.9922C45.4245 30.1641 45.8073 30.25 46.2188 30.25C46.6354 30.25 46.9896 30.1719 47.2812 30.0156C47.5781 29.8646 47.8047 29.6406 47.9609 29.3438C48.1224 29.0521 48.2031 28.6927 48.2031 28.2656V21.9766L48.3984 20.0469ZM42.6875 24.375V24.2109C42.6875 23.5651 42.7656 22.9792 42.9219 22.4531C43.0781 21.9219 43.3021 21.4661 43.5938 21.0859C43.8906 20.7057 44.2474 20.4115 44.6641 20.2031C45.0859 19.9948 45.5599 19.8906 46.0859 19.8906C46.6432 19.8906 47.112 19.9922 47.4922 20.1953C47.8776 20.3984 48.1953 20.6875 48.4453 21.0625C48.7005 21.4375 48.8984 21.8828 49.0391 22.3984C49.1849 22.9089 49.2969 23.4714 49.375 24.0859V24.5312C49.3021 25.1302 49.1849 25.6797 49.0234 26.1797C48.8672 26.6797 48.6589 27.1172 48.3984 27.4922C48.138 27.862 47.8151 28.1484 47.4297 28.3516C47.0443 28.5547 46.5911 28.6562 46.0703 28.6562C45.5495 28.6562 45.0807 28.5495 44.6641 28.3359C44.2474 28.1224 43.8906 27.8229 43.5938 27.4375C43.3021 27.0521 43.0781 26.599 42.9219 26.0781C42.7656 25.5573 42.6875 24.9896 42.6875 24.375ZM44.75 24.2109V24.375C44.75 24.7396 44.7865 25.0807 44.8594 25.3984C44.9323 25.7161 45.0443 25.9974 45.1953 26.2422C45.3464 26.4818 45.5365 26.6693 45.7656 26.8047C45.9948 26.9401 46.2682 27.0078 46.5859 27.0078C47.013 27.0078 47.362 26.9193 47.6328 26.7422C47.9089 26.5599 48.1172 26.3125 48.2578 26C48.4036 25.6823 48.4974 25.3255 48.5391 24.9297V23.7031C48.513 23.3906 48.4557 23.1016 48.3672 22.8359C48.2839 22.5703 48.1667 22.3411 48.0156 22.1484C47.8646 21.9557 47.6719 21.8047 47.4375 21.6953C47.2031 21.5859 46.9245 21.5312 46.6016 21.5312C46.2891 21.5312 46.0156 21.6016 45.7812 21.7422C45.5469 21.8776 45.3542 22.0677 45.2031 22.3125C45.0521 22.5573 44.9375 22.8411 44.8594 23.1641C44.7865 23.487 44.75 23.8359 44.75 24.2109ZM57.1641 26.4922V20.0469H59.2422V28.5H57.2891L57.1641 26.4922ZM57.4297 24.7422L58.0703 24.7266C58.0703 25.2943 58.0078 25.8177 57.8828 26.2969C57.7578 26.776 57.5625 27.1927 57.2969 27.5469C57.0365 27.8958 56.7057 28.1693 56.3047 28.3672C55.9036 28.5599 55.4297 28.6562 54.8828 28.6562C54.4661 28.6562 54.0859 28.599 53.7422 28.4844C53.3984 28.3646 53.1016 28.1797 52.8516 27.9297C52.6068 27.6745 52.4167 27.349 52.2812 26.9531C52.1458 26.5521 52.0781 26.0703 52.0781 25.5078V20.0469H54.1406V25.5234C54.1406 25.8047 54.1719 26.0391 54.2344 26.2266C54.3021 26.4141 54.3932 26.5677 54.5078 26.6875C54.6276 26.8021 54.7656 26.8854 54.9219 26.9375C55.0833 26.9844 55.2552 27.0078 55.4375 27.0078C55.9375 27.0078 56.3307 26.9089 56.6172 26.7109C56.9089 26.5078 57.1172 26.237 57.2422 25.8984C57.3672 25.5547 57.4297 25.1693 57.4297 24.7422ZM63.2578 20.0469V28.5H61.1875V20.0469H63.2578ZM61.0469 17.8359C61.0469 17.5286 61.151 17.2734 61.3594 17.0703C61.5729 16.8672 61.8594 16.7656 62.2188 16.7656C62.5781 16.7656 62.862 16.8672 63.0703 17.0703C63.2839 17.2734 63.3906 17.5286 63.3906 17.8359C63.3906 18.138 63.2839 18.3906 63.0703 18.5938C62.862 18.7969 62.5781 18.8984 62.2188 18.8984C61.8594 18.8984 61.5729 18.7969 61.3594 18.5938C61.151 18.3906 61.0469 18.138 61.0469 17.8359ZM69.0234 28.6562C68.3828 28.6562 67.8073 28.5521 67.2969 28.3438C66.7865 28.1354 66.3516 27.8464 65.9922 27.4766C65.638 27.1016 65.3646 26.6667 65.1719 26.1719C64.9844 25.6719 64.8906 25.1354 64.8906 24.5625V24.25C64.8906 23.599 64.9844 23.0078 65.1719 22.4766C65.3594 21.9401 65.625 21.4792 65.9688 21.0938C66.3125 20.7083 66.724 20.4115 67.2031 20.2031C67.6823 19.9948 68.2109 19.8906 68.7891 19.8906C69.388 19.8906 69.9167 19.9922 70.375 20.1953C70.8333 20.3932 71.2161 20.6745 71.5234 21.0391C71.8307 21.4036 72.0625 21.8411 72.2188 22.3516C72.375 22.8568 72.4531 23.4167 72.4531 24.0312V24.8984H65.8281V23.4766H70.4219V23.3203C70.4115 22.9922 70.349 22.6927 70.2344 22.4219C70.1198 22.1458 69.9427 21.9271 69.7031 21.7656C69.4635 21.599 69.1536 21.5156 68.7734 21.5156C68.4661 21.5156 68.1979 21.5833 67.9688 21.7188C67.7448 21.849 67.5573 22.0365 67.4062 22.2812C67.2604 22.5208 67.151 22.8073 67.0781 23.1406C67.0052 23.474 66.9688 23.8438 66.9688 24.25V24.5625C66.9688 24.9167 67.0156 25.2448 67.1094 25.5469C67.2083 25.849 67.3516 26.112 67.5391 26.3359C67.7318 26.5547 67.9609 26.7266 68.2266 26.8516C68.4974 26.9714 68.8047 27.0312 69.1484 27.0312C69.5807 27.0312 69.9714 26.9479 70.3203 26.7812C70.6745 26.6094 70.9818 26.3568 71.2422 26.0234L72.2812 27.1016C72.1042 27.362 71.8646 27.612 71.5625 27.8516C71.2656 28.0911 70.9062 28.2865 70.4844 28.4375C70.0625 28.5833 69.5755 28.6562 69.0234 28.6562ZM75.8594 21.8516V28.5H73.7969V20.0469H75.7344L75.8594 21.8516ZM75.5312 23.9688H74.9219C74.9271 23.3542 75.0104 22.7969 75.1719 22.2969C75.3333 21.7969 75.5599 21.3672 75.8516 21.0078C76.1484 20.6484 76.5 20.3724 76.9062 20.1797C77.3125 19.987 77.7656 19.8906 78.2656 19.8906C78.6719 19.8906 79.0391 19.9479 79.3672 20.0625C79.6953 20.1771 79.9766 20.3594 80.2109 20.6094C80.4505 20.8594 80.6328 21.1875 80.7578 21.5938C80.888 21.9948 80.9531 22.4896 80.9531 23.0781V28.5H78.875V23.0625C78.875 22.6771 78.8177 22.3724 78.7031 22.1484C78.5938 21.9245 78.4323 21.7656 78.2188 21.6719C78.0104 21.5781 77.7526 21.5312 77.4453 21.5312C77.1276 21.5312 76.849 21.5964 76.6094 21.7266C76.375 21.8516 76.1771 22.026 76.0156 22.25C75.8594 22.474 75.7396 22.7318 75.6562 23.0234C75.5729 23.3151 75.5312 23.6302 75.5312 23.9688ZM86.7734 20.0469V21.5312H81.9297V20.0469H86.7734ZM83.2266 17.9688H85.2969V26.0625C85.2969 26.3125 85.3307 26.5052 85.3984 26.6406C85.4661 26.776 85.5677 26.8672 85.7031 26.9141C85.8385 26.9609 86 26.9844 86.1875 26.9844C86.3229 26.9844 86.4479 26.9766 86.5625 26.9609C86.6771 26.9453 86.7734 26.9297 86.8516 26.9141L86.8594 28.4609C86.6875 28.5182 86.4922 28.5651 86.2734 28.6016C86.0599 28.638 85.8177 28.6562 85.5469 28.6562C85.0833 28.6562 84.6771 28.5781 84.3281 28.4219C83.9792 28.2604 83.7083 28.0026 83.5156 27.6484C83.3229 27.2891 83.2266 26.8151 83.2266 26.2266V17.9688ZM91.9453 28.6562C91.3047 28.6562 90.7292 28.5521 90.2188 28.3438C89.7083 28.1354 89.2734 27.8464 88.9141 27.4766C88.5599 27.1016 88.2865 26.6667 88.0938 26.1719C87.9062 25.6719 87.8125 25.1354 87.8125 24.5625V24.25C87.8125 23.599 87.9062 23.0078 88.0938 22.4766C88.2812 21.9401 88.5469 21.4792 88.8906 21.0938C89.2344 20.7083 89.6458 20.4115 90.125 20.2031C90.6042 19.9948 91.1328 19.8906 91.7109 19.8906C92.3099 19.8906 92.8385 19.9922 93.2969 20.1953C93.7552 20.3932 94.138 20.6745 94.4453 21.0391C94.7526 21.4036 94.9844 21.8411 95.1406 22.3516C95.2969 22.8568 95.375 23.4167 95.375 24.0312V24.8984H88.75V23.4766H93.3438V23.3203C93.3333 22.9922 93.2708 22.6927 93.1562 22.4219C93.0417 22.1458 92.8646 21.9271 92.625 21.7656C92.3854 21.599 92.0755 21.5156 91.6953 21.5156C91.388 21.5156 91.1198 21.5833 90.8906 21.7188C90.6667 21.849 90.4792 22.0365 90.3281 22.2812C90.1823 22.5208 90.0729 22.8073 90 23.1406C89.9271 23.474 89.8906 23.8438 89.8906 24.25V24.5625C89.8906 24.9167 89.9375 25.2448 90.0312 25.5469C90.1302 25.849 90.2734 26.112 90.4609 26.3359C90.6536 26.5547 90.8828 26.7266 91.1484 26.8516C91.4193 26.9714 91.7266 27.0312 92.0703 27.0312C92.5026 27.0312 92.8932 26.9479 93.2422 26.7812C93.5964 26.6094 93.9036 26.3568 94.1641 26.0234L95.2031 27.1016C95.026 27.362 94.7865 27.612 94.4844 27.8516C94.1875 28.0911 93.8281 28.2865 93.4062 28.4375C92.9844 28.5833 92.4974 28.6562 91.9453 28.6562Z" fill="white"/>
</svg>
