<svg width="23" height="20" viewBox="0 0 23 20" fill="none" xmlns="http://www.w3.org/2000/svg">
<path d="M11.5 5.98212C11.0768 5.98859 10.6567 6.05436 10.2525 6.17743C10.4395 6.49904 10.539 6.86216 10.5416 7.23212C10.5416 7.51938 10.4838 7.80384 10.3714 8.06924C10.2591 8.33464 10.0943 8.57578 9.8867 8.77891C9.67906 8.98204 9.43255 9.14317 9.16126 9.2531C8.88996 9.36304 8.59918 9.41962 8.30553 9.41962C7.92736 9.41705 7.55616 9.31968 7.22741 9.1368C6.96803 10.0168 6.99826 10.9543 7.31382 11.8166C7.62937 12.6788 8.21426 13.4221 8.98562 13.9411C9.75698 14.4601 10.6757 14.7286 11.6117 14.7084C12.5477 14.6882 13.4534 14.3805 14.2007 13.8287C14.9479 13.277 15.4988 12.5092 15.7752 11.6342C16.0516 10.7592 16.0396 9.82128 15.7409 8.95332C15.4421 8.08535 14.8718 7.33133 14.1107 6.79807C13.3495 6.26482 12.4362 5.97935 11.5 5.98212ZM22.861 9.7868C20.6956 5.6536 16.4086 2.85712 11.5 2.85712C6.59132 2.85712 2.30317 5.65555 0.138937 9.7872C0.0475921 9.96396 0 10.1592 0 10.3573C0 10.5554 0.0475921 10.7507 0.138937 10.9274C2.30437 15.0606 6.59132 17.8571 11.5 17.8571C16.4086 17.8571 20.6968 15.0587 22.861 10.927C22.9524 10.7503 23 10.555 23 10.3569C23 10.1589 22.9524 9.96357 22.861 9.7868ZM11.5 15.9821C7.56083 15.9821 3.94951 13.8337 1.9993 10.3571C3.94951 6.88055 7.56043 4.73212 11.5 4.73212C15.4395 4.73212 19.0504 6.88055 21.0007 10.3571C19.0508 13.8337 15.4395 15.9821 11.5 15.9821Z" fill="#F8F7FA"/>
</svg>
