<svg width="23" height="23" viewBox="0 0 23 23" fill="none" xmlns="http://www.w3.org/2000/svg">
<path d="M4.89233 15.3778L4.89218 15.378C4.68609 15.7135 4.58337 16.0766 4.58337 16.4833V17.25C4.58337 17.5764 4.69093 17.8375 4.9272 18.0738C5.16257 18.3092 5.42326 18.4167 5.75004 18.4167H17.25C17.5766 18.4167 17.8378 18.3093 18.0738 18.0738C18.3093 17.8378 18.4167 17.5766 18.4167 17.25V16.4833C18.4167 16.0766 18.314 15.7135 18.1079 15.378L18.1078 15.3778C17.8991 15.0379 17.63 14.7873 17.2931 14.6121C16.3523 14.1422 15.4007 13.7916 14.4379 13.5581C13.4737 13.3249 12.4948 13.2083 11.5 13.2083C10.5053 13.2083 9.52642 13.3249 8.56221 13.5581L4.89233 15.3778ZM4.89233 15.3778C5.10096 15.0379 5.37008 14.7873 5.707 14.6121M4.89233 15.3778L5.707 14.6121M5.707 14.6121C6.64778 14.1422 7.59932 13.7916 8.56215 13.5581L5.707 14.6121ZM11.5 10.75C10.6464 10.75 9.93424 10.4548 9.32308 9.84364C8.71192 9.23247 8.41671 8.52035 8.41671 7.66668C8.41671 6.813 8.71192 6.10088 9.32308 5.48972C9.93424 4.87855 10.6464 4.58334 11.5 4.58334C12.3537 4.58334 13.0658 4.87855 13.677 5.48972C14.2882 6.10088 14.5834 6.813 14.5834 7.66668C14.5834 8.52035 14.2882 9.23247 13.677 9.84364C13.0658 10.4548 12.3537 10.75 11.5 10.75Z" stroke="#1A1E2E" stroke-width="1.5"/>
</svg>
