<svg width="307" height="47" viewBox="0 0 307 47" fill="none" xmlns="http://www.w3.org/2000/svg">
<rect width="307" height="47" rx="23.5" fill="#1B4DB1"/>
<path d="M126.711 25.5469C126.711 25.3281 126.677 25.1328 126.609 24.9609C126.547 24.7839 126.43 24.625 126.258 24.4844C126.091 24.3385 125.854 24.1979 125.547 24.0625C125.245 23.9219 124.854 23.776 124.375 23.625C123.844 23.4583 123.349 23.2708 122.891 23.0625C122.432 22.8542 122.029 22.612 121.68 22.3359C121.336 22.0599 121.068 21.7422 120.875 21.3828C120.682 21.0182 120.586 20.5964 120.586 20.1172C120.586 19.6484 120.685 19.2214 120.883 18.8359C121.086 18.4505 121.372 18.1198 121.742 17.8438C122.112 17.5625 122.547 17.3464 123.047 17.1953C123.552 17.0443 124.109 16.9688 124.719 16.9688C125.562 16.9688 126.292 17.1224 126.906 17.4297C127.526 17.737 128.005 18.1536 128.344 18.6797C128.682 19.2057 128.852 19.7969 128.852 20.4531H126.711C126.711 20.099 126.635 19.7865 126.484 19.5156C126.339 19.2448 126.115 19.0312 125.812 18.875C125.516 18.7188 125.141 18.6406 124.688 18.6406C124.25 18.6406 123.885 18.7057 123.594 18.8359C123.307 18.9661 123.091 19.1432 122.945 19.3672C122.805 19.5911 122.734 19.8411 122.734 20.1172C122.734 20.3255 122.784 20.513 122.883 20.6797C122.982 20.8411 123.13 20.9948 123.328 21.1406C123.526 21.2812 123.771 21.4141 124.062 21.5391C124.359 21.6589 124.703 21.7786 125.094 21.8984C125.719 22.0859 126.266 22.2943 126.734 22.5234C127.208 22.7526 127.602 23.013 127.914 23.3047C128.232 23.5964 128.469 23.9245 128.625 24.2891C128.786 24.6536 128.867 25.0677 128.867 25.5312C128.867 26.0208 128.771 26.4583 128.578 26.8438C128.385 27.2292 128.109 27.5573 127.75 27.8281C127.391 28.099 126.958 28.3047 126.453 28.4453C125.953 28.5859 125.393 28.6562 124.773 28.6562C124.221 28.6562 123.674 28.5833 123.133 28.4375C122.596 28.2865 122.109 28.0625 121.672 27.7656C121.234 27.4635 120.885 27.0833 120.625 26.625C120.365 26.1615 120.234 25.6198 120.234 25H122.391C122.391 25.3594 122.448 25.6667 122.562 25.9219C122.682 26.1719 122.849 26.3776 123.062 26.5391C123.281 26.6953 123.536 26.8099 123.828 26.8828C124.12 26.9557 124.435 26.9922 124.773 26.9922C125.211 26.9922 125.57 26.9323 125.852 26.8125C126.138 26.6875 126.352 26.5156 126.492 26.2969C126.638 26.0781 126.711 25.8281 126.711 25.5469ZM132.555 20.0469V28.5H130.484V20.0469H132.555ZM130.344 17.8359C130.344 17.5286 130.448 17.2734 130.656 17.0703C130.87 16.8672 131.156 16.7656 131.516 16.7656C131.875 16.7656 132.159 16.8672 132.367 17.0703C132.581 17.2734 132.688 17.5286 132.688 17.8359C132.688 18.138 132.581 18.3906 132.367 18.5938C132.159 18.7969 131.875 18.8984 131.516 18.8984C131.156 18.8984 130.87 18.7969 130.656 18.5938C130.448 18.3906 130.344 18.138 130.344 17.8359ZM139.898 20.0469H141.773V28.2422C141.773 29.0078 141.607 29.6562 141.273 30.1875C140.945 30.724 140.484 31.1302 139.891 31.4062C139.297 31.6875 138.607 31.8281 137.82 31.8281C137.482 31.8281 137.115 31.7812 136.719 31.6875C136.328 31.5938 135.951 31.4453 135.586 31.2422C135.227 31.0443 134.927 30.7865 134.688 30.4688L135.617 29.25C135.898 29.5781 136.216 29.8255 136.57 29.9922C136.924 30.1641 137.307 30.25 137.719 30.25C138.135 30.25 138.49 30.1719 138.781 30.0156C139.078 29.8646 139.305 29.6406 139.461 29.3438C139.622 29.0521 139.703 28.6927 139.703 28.2656V21.9766L139.898 20.0469ZM134.188 24.375V24.2109C134.188 23.5651 134.266 22.9792 134.422 22.4531C134.578 21.9219 134.802 21.4661 135.094 21.0859C135.391 20.7057 135.747 20.4115 136.164 20.2031C136.586 19.9948 137.06 19.8906 137.586 19.8906C138.143 19.8906 138.612 19.9922 138.992 20.1953C139.378 20.3984 139.695 20.6875 139.945 21.0625C140.201 21.4375 140.398 21.8828 140.539 22.3984C140.685 22.9089 140.797 23.4714 140.875 24.0859V24.5312C140.802 25.1302 140.685 25.6797 140.523 26.1797C140.367 26.6797 140.159 27.1172 139.898 27.4922C139.638 27.862 139.315 28.1484 138.93 28.3516C138.544 28.5547 138.091 28.6562 137.57 28.6562C137.049 28.6562 136.581 28.5495 136.164 28.3359C135.747 28.1224 135.391 27.8229 135.094 27.4375C134.802 27.0521 134.578 26.599 134.422 26.0781C134.266 25.5573 134.188 24.9896 134.188 24.375ZM136.25 24.2109V24.375C136.25 24.7396 136.286 25.0807 136.359 25.3984C136.432 25.7161 136.544 25.9974 136.695 26.2422C136.846 26.4818 137.036 26.6693 137.266 26.8047C137.495 26.9401 137.768 27.0078 138.086 27.0078C138.513 27.0078 138.862 26.9193 139.133 26.7422C139.409 26.5599 139.617 26.3125 139.758 26C139.904 25.6823 139.997 25.3255 140.039 24.9297V23.7031C140.013 23.3906 139.956 23.1016 139.867 22.8359C139.784 22.5703 139.667 22.3411 139.516 22.1484C139.365 21.9557 139.172 21.8047 138.938 21.6953C138.703 21.5859 138.424 21.5312 138.102 21.5312C137.789 21.5312 137.516 21.6016 137.281 21.7422C137.047 21.8776 136.854 22.0677 136.703 22.3125C136.552 22.5573 136.438 22.8411 136.359 23.1641C136.286 23.487 136.25 23.8359 136.25 24.2109ZM148.664 26.4922V20.0469H150.742V28.5H148.789L148.664 26.4922ZM148.93 24.7422L149.57 24.7266C149.57 25.2943 149.508 25.8177 149.383 26.2969C149.258 26.776 149.062 27.1927 148.797 27.5469C148.536 27.8958 148.206 28.1693 147.805 28.3672C147.404 28.5599 146.93 28.6562 146.383 28.6562C145.966 28.6562 145.586 28.599 145.242 28.4844C144.898 28.3646 144.602 28.1797 144.352 27.9297C144.107 27.6745 143.917 27.349 143.781 26.9531C143.646 26.5521 143.578 26.0703 143.578 25.5078V20.0469H145.641V25.5234C145.641 25.8047 145.672 26.0391 145.734 26.2266C145.802 26.4141 145.893 26.5677 146.008 26.6875C146.128 26.8021 146.266 26.8854 146.422 26.9375C146.583 26.9844 146.755 27.0078 146.938 27.0078C147.438 27.0078 147.831 26.9089 148.117 26.7109C148.409 26.5078 148.617 26.237 148.742 25.8984C148.867 25.5547 148.93 25.1693 148.93 24.7422ZM154.758 20.0469V28.5H152.688V20.0469H154.758ZM152.547 17.8359C152.547 17.5286 152.651 17.2734 152.859 17.0703C153.073 16.8672 153.359 16.7656 153.719 16.7656C154.078 16.7656 154.362 16.8672 154.57 17.0703C154.784 17.2734 154.891 17.5286 154.891 17.8359C154.891 18.138 154.784 18.3906 154.57 18.5938C154.362 18.7969 154.078 18.8984 153.719 18.8984C153.359 18.8984 153.073 18.7969 152.859 18.5938C152.651 18.3906 152.547 18.138 152.547 17.8359ZM160.523 28.6562C159.883 28.6562 159.307 28.5521 158.797 28.3438C158.286 28.1354 157.852 27.8464 157.492 27.4766C157.138 27.1016 156.865 26.6667 156.672 26.1719C156.484 25.6719 156.391 25.1354 156.391 24.5625V24.25C156.391 23.599 156.484 23.0078 156.672 22.4766C156.859 21.9401 157.125 21.4792 157.469 21.0938C157.812 20.7083 158.224 20.4115 158.703 20.2031C159.182 19.9948 159.711 19.8906 160.289 19.8906C160.888 19.8906 161.417 19.9922 161.875 20.1953C162.333 20.3932 162.716 20.6745 163.023 21.0391C163.331 21.4036 163.562 21.8411 163.719 22.3516C163.875 22.8568 163.953 23.4167 163.953 24.0312V24.8984H157.328V23.4766H161.922V23.3203C161.911 22.9922 161.849 22.6927 161.734 22.4219C161.62 22.1458 161.443 21.9271 161.203 21.7656C160.964 21.599 160.654 21.5156 160.273 21.5156C159.966 21.5156 159.698 21.5833 159.469 21.7188C159.245 21.849 159.057 22.0365 158.906 22.2812C158.76 22.5208 158.651 22.8073 158.578 23.1406C158.505 23.474 158.469 23.8438 158.469 24.25V24.5625C158.469 24.9167 158.516 25.2448 158.609 25.5469C158.708 25.849 158.852 26.112 159.039 26.3359C159.232 26.5547 159.461 26.7266 159.727 26.8516C159.997 26.9714 160.305 27.0312 160.648 27.0312C161.081 27.0312 161.471 26.9479 161.82 26.7812C162.174 26.6094 162.482 26.3568 162.742 26.0234L163.781 27.1016C163.604 27.362 163.365 27.612 163.062 27.8516C162.766 28.0911 162.406 28.2865 161.984 28.4375C161.562 28.5833 161.076 28.6562 160.523 28.6562ZM167.359 21.8516V28.5H165.297V20.0469H167.234L167.359 21.8516ZM167.031 23.9688H166.422C166.427 23.3542 166.51 22.7969 166.672 22.2969C166.833 21.7969 167.06 21.3672 167.352 21.0078C167.648 20.6484 168 20.3724 168.406 20.1797C168.812 19.987 169.266 19.8906 169.766 19.8906C170.172 19.8906 170.539 19.9479 170.867 20.0625C171.195 20.1771 171.477 20.3594 171.711 20.6094C171.951 20.8594 172.133 21.1875 172.258 21.5938C172.388 21.9948 172.453 22.4896 172.453 23.0781V28.5H170.375V23.0625C170.375 22.6771 170.318 22.3724 170.203 22.1484C170.094 21.9245 169.932 21.7656 169.719 21.6719C169.51 21.5781 169.253 21.5312 168.945 21.5312C168.628 21.5312 168.349 21.5964 168.109 21.7266C167.875 21.8516 167.677 22.026 167.516 22.25C167.359 22.474 167.24 22.7318 167.156 23.0234C167.073 23.3151 167.031 23.6302 167.031 23.9688ZM178.273 20.0469V21.5312H173.43V20.0469H178.273ZM174.727 17.9688H176.797V26.0625C176.797 26.3125 176.831 26.5052 176.898 26.6406C176.966 26.776 177.068 26.8672 177.203 26.9141C177.339 26.9609 177.5 26.9844 177.688 26.9844C177.823 26.9844 177.948 26.9766 178.062 26.9609C178.177 26.9453 178.273 26.9297 178.352 26.9141L178.359 28.4609C178.188 28.5182 177.992 28.5651 177.773 28.6016C177.56 28.638 177.318 28.6562 177.047 28.6562C176.583 28.6562 176.177 28.5781 175.828 28.4219C175.479 28.2604 175.208 28.0026 175.016 27.6484C174.823 27.2891 174.727 26.8151 174.727 26.2266V17.9688ZM183.445 28.6562C182.805 28.6562 182.229 28.5521 181.719 28.3438C181.208 28.1354 180.773 27.8464 180.414 27.4766C180.06 27.1016 179.786 26.6667 179.594 26.1719C179.406 25.6719 179.312 25.1354 179.312 24.5625V24.25C179.312 23.599 179.406 23.0078 179.594 22.4766C179.781 21.9401 180.047 21.4792 180.391 21.0938C180.734 20.7083 181.146 20.4115 181.625 20.2031C182.104 19.9948 182.633 19.8906 183.211 19.8906C183.81 19.8906 184.339 19.9922 184.797 20.1953C185.255 20.3932 185.638 20.6745 185.945 21.0391C186.253 21.4036 186.484 21.8411 186.641 22.3516C186.797 22.8568 186.875 23.4167 186.875 24.0312V24.8984H180.25V23.4766H184.844V23.3203C184.833 22.9922 184.771 22.6927 184.656 22.4219C184.542 22.1458 184.365 21.9271 184.125 21.7656C183.885 21.599 183.576 21.5156 183.195 21.5156C182.888 21.5156 182.62 21.5833 182.391 21.7188C182.167 21.849 181.979 22.0365 181.828 22.2812C181.682 22.5208 181.573 22.8073 181.5 23.1406C181.427 23.474 181.391 23.8438 181.391 24.25V24.5625C181.391 24.9167 181.438 25.2448 181.531 25.5469C181.63 25.849 181.773 26.112 181.961 26.3359C182.154 26.5547 182.383 26.7266 182.648 26.8516C182.919 26.9714 183.227 27.0312 183.57 27.0312C184.003 27.0312 184.393 26.9479 184.742 26.7812C185.096 26.6094 185.404 26.3568 185.664 26.0234L186.703 27.1016C186.526 27.362 186.286 27.612 185.984 27.8516C185.688 28.0911 185.328 28.2865 184.906 28.4375C184.484 28.5833 183.997 28.6562 183.445 28.6562Z" fill="white"/>
</svg>
