<svg width="379" height="46" viewBox="0 0 379 46" fill="none" xmlns="http://www.w3.org/2000/svg">
<path d="M175.227 26.4219L178.219 17.125H180.383L176.305 28.5H174.844L175.227 26.4219ZM172.461 17.125L175.43 26.4219L175.836 28.5H174.367L170.305 17.125H172.461ZM180.75 24.3672V24.1875C180.75 23.5781 180.839 23.013 181.016 22.4922C181.193 21.9661 181.448 21.5104 181.781 21.125C182.12 20.7344 182.531 20.4323 183.016 20.2188C183.505 20 184.057 19.8906 184.672 19.8906C185.292 19.8906 185.844 20 186.328 20.2188C186.818 20.4323 187.232 20.7344 187.57 21.125C187.909 21.5104 188.167 21.9661 188.344 22.4922C188.521 23.013 188.609 23.5781 188.609 24.1875V24.3672C188.609 24.9766 188.521 25.5417 188.344 26.0625C188.167 26.5833 187.909 27.0391 187.57 27.4297C187.232 27.8151 186.82 28.1172 186.336 28.3359C185.852 28.5495 185.302 28.6562 184.688 28.6562C184.068 28.6562 183.513 28.5495 183.023 28.3359C182.539 28.1172 182.128 27.8151 181.789 27.4297C181.451 27.0391 181.193 26.5833 181.016 26.0625C180.839 25.5417 180.75 24.9766 180.75 24.3672ZM182.633 24.1875V24.3672C182.633 24.7474 182.672 25.1068 182.75 25.4453C182.828 25.7839 182.951 26.0807 183.117 26.3359C183.284 26.5911 183.497 26.7917 183.758 26.9375C184.018 27.0833 184.328 27.1562 184.688 27.1562C185.036 27.1562 185.339 27.0833 185.594 26.9375C185.854 26.7917 186.068 26.5911 186.234 26.3359C186.401 26.0807 186.523 25.7839 186.602 25.4453C186.685 25.1068 186.727 24.7474 186.727 24.3672V24.1875C186.727 23.8125 186.685 23.4583 186.602 23.125C186.523 22.7865 186.398 22.487 186.227 22.2266C186.06 21.9661 185.846 21.763 185.586 21.6172C185.331 21.4661 185.026 21.3906 184.672 21.3906C184.318 21.3906 184.01 21.4661 183.75 21.6172C183.495 21.763 183.284 21.9661 183.117 22.2266C182.951 22.487 182.828 22.7865 182.75 23.125C182.672 23.4583 182.633 23.8125 182.633 24.1875ZM194.062 20.0469V21.4219H189.297V20.0469H194.062ZM190.672 17.9766H192.555V26.1641C192.555 26.4245 192.591 26.625 192.664 26.7656C192.742 26.901 192.849 26.9922 192.984 27.0391C193.12 27.0859 193.279 27.1094 193.461 27.1094C193.591 27.1094 193.716 27.1016 193.836 27.0859C193.956 27.0703 194.052 27.0547 194.125 27.0391L194.133 28.4766C193.977 28.5234 193.794 28.5651 193.586 28.6016C193.383 28.638 193.148 28.6562 192.883 28.6562C192.451 28.6562 192.068 28.5807 191.734 28.4297C191.401 28.2734 191.141 28.0208 190.953 27.6719C190.766 27.3229 190.672 26.8594 190.672 26.2812V17.9766ZM200.281 26.8047V22.7734C200.281 22.4714 200.227 22.2109 200.117 21.9922C200.008 21.7734 199.841 21.6042 199.617 21.4844C199.398 21.3646 199.122 21.3047 198.789 21.3047C198.482 21.3047 198.216 21.3568 197.992 21.4609C197.768 21.5651 197.594 21.7057 197.469 21.8828C197.344 22.0599 197.281 22.2604 197.281 22.4844H195.406C195.406 22.151 195.487 21.8281 195.648 21.5156C195.81 21.2031 196.044 20.9245 196.352 20.6797C196.659 20.4349 197.026 20.2422 197.453 20.1016C197.88 19.9609 198.359 19.8906 198.891 19.8906C199.526 19.8906 200.089 19.9974 200.578 20.2109C201.073 20.4245 201.461 20.7474 201.742 21.1797C202.029 21.6068 202.172 22.1432 202.172 22.7891V26.5469C202.172 26.9323 202.198 27.2786 202.25 27.5859C202.307 27.888 202.388 28.151 202.492 28.375V28.5H200.562C200.474 28.2969 200.404 28.0391 200.352 27.7266C200.305 27.4089 200.281 27.1016 200.281 26.8047ZM200.555 23.3594L200.57 24.5234H199.219C198.87 24.5234 198.562 24.5573 198.297 24.625C198.031 24.6875 197.81 24.7812 197.633 24.9062C197.456 25.0312 197.323 25.1823 197.234 25.3594C197.146 25.5365 197.102 25.737 197.102 25.9609C197.102 26.1849 197.154 26.3906 197.258 26.5781C197.362 26.7604 197.513 26.9036 197.711 27.0078C197.914 27.112 198.159 27.1641 198.445 27.1641C198.831 27.1641 199.167 27.0859 199.453 26.9297C199.745 26.7682 199.974 26.5729 200.141 26.3438C200.307 26.1094 200.396 25.888 200.406 25.6797L201.016 26.5156C200.953 26.7292 200.846 26.9583 200.695 27.2031C200.544 27.4479 200.346 27.6823 200.102 27.9062C199.862 28.125 199.573 28.3047 199.234 28.4453C198.901 28.5859 198.516 28.6562 198.078 28.6562C197.526 28.6562 197.034 28.5469 196.602 28.3281C196.169 28.1042 195.831 27.8047 195.586 27.4297C195.341 27.0495 195.219 26.6198 195.219 26.1406C195.219 25.6927 195.302 25.2969 195.469 24.9531C195.641 24.6042 195.891 24.3125 196.219 24.0781C196.552 23.8438 196.958 23.6667 197.438 23.5469C197.917 23.4219 198.464 23.3594 199.078 23.3594H200.555ZM206.031 21.6562V28.5H204.148V20.0469H205.945L206.031 21.6562ZM208.617 19.9922L208.602 21.7422C208.487 21.7214 208.362 21.7057 208.227 21.6953C208.096 21.6849 207.966 21.6797 207.836 21.6797C207.513 21.6797 207.229 21.7266 206.984 21.8203C206.74 21.9089 206.534 22.0391 206.367 22.2109C206.206 22.3776 206.081 22.5807 205.992 22.8203C205.904 23.0599 205.852 23.3281 205.836 23.625L205.406 23.6562C205.406 23.125 205.458 22.6328 205.562 22.1797C205.667 21.7266 205.823 21.3281 206.031 20.9844C206.245 20.6406 206.51 20.3724 206.828 20.1797C207.151 19.987 207.523 19.8906 207.945 19.8906C208.06 19.8906 208.182 19.901 208.312 19.9219C208.448 19.9427 208.549 19.9661 208.617 19.9922Z" fill="white"/>
<rect x="0.5" y="0.5" width="378" height="45" rx="22.5" stroke="#1B4DB1"/>
</svg>
