<svg width="379" height="46" viewBox="0 0 379 46" fill="none" xmlns="http://www.w3.org/2000/svg">
<rect width="379" height="46" rx="23" fill="#FF64BC"/>
<path d="M138.25 17.125H142.273C143.138 17.125 143.875 17.2552 144.484 17.5156C145.094 17.776 145.56 18.1615 145.883 18.6719C146.211 19.1771 146.375 19.8021 146.375 20.5469C146.375 21.1146 146.271 21.6146 146.062 22.0469C145.854 22.4792 145.56 22.8438 145.18 23.1406C144.799 23.4323 144.346 23.6589 143.82 23.8203L143.227 24.1094H139.609L139.594 22.5547H142.305C142.773 22.5547 143.164 22.4714 143.477 22.3047C143.789 22.138 144.023 21.9115 144.18 21.625C144.341 21.3333 144.422 21.0052 144.422 20.6406C144.422 20.2448 144.344 19.901 144.188 19.6094C144.036 19.3125 143.802 19.0859 143.484 18.9297C143.167 18.7682 142.763 18.6875 142.273 18.6875H140.211V28.5H138.25V17.125ZM144.742 28.5L142.07 23.3906L144.125 23.3828L146.836 28.3984V28.5H144.742ZM151.867 28.6562C151.242 28.6562 150.677 28.5547 150.172 28.3516C149.672 28.1432 149.245 27.8542 148.891 27.4844C148.542 27.1146 148.273 26.6797 148.086 26.1797C147.898 25.6797 147.805 25.1406 147.805 24.5625V24.25C147.805 23.5885 147.901 22.9896 148.094 22.4531C148.286 21.9167 148.555 21.4583 148.898 21.0781C149.242 20.6927 149.648 20.3984 150.117 20.1953C150.586 19.9922 151.094 19.8906 151.641 19.8906C152.245 19.8906 152.773 19.9922 153.227 20.1953C153.68 20.3984 154.055 20.6849 154.352 21.0547C154.654 21.4193 154.878 21.8542 155.023 22.3594C155.174 22.8646 155.25 23.4219 155.25 24.0312V24.8359H148.719V23.4844H153.391V23.3359C153.38 22.9974 153.312 22.6797 153.188 22.3828C153.068 22.0859 152.883 21.8464 152.633 21.6641C152.383 21.4818 152.049 21.3906 151.633 21.3906C151.32 21.3906 151.042 21.4583 150.797 21.5938C150.557 21.724 150.357 21.9141 150.195 22.1641C150.034 22.4141 149.909 22.7161 149.82 23.0703C149.737 23.4193 149.695 23.8125 149.695 24.25V24.5625C149.695 24.9323 149.745 25.276 149.844 25.5938C149.948 25.9062 150.099 26.1797 150.297 26.4141C150.495 26.6484 150.734 26.8333 151.016 26.9688C151.297 27.099 151.617 27.1641 151.977 27.1641C152.43 27.1641 152.833 27.0729 153.188 26.8906C153.542 26.7083 153.849 26.4505 154.109 26.1172L155.102 27.0781C154.919 27.3438 154.682 27.599 154.391 27.8438C154.099 28.0833 153.742 28.2786 153.32 28.4297C152.904 28.5807 152.419 28.6562 151.867 28.6562ZM160.594 20.0469V21.4219H155.828V20.0469H160.594ZM157.203 17.9766H159.086V26.1641C159.086 26.4245 159.122 26.625 159.195 26.7656C159.273 26.901 159.38 26.9922 159.516 27.0391C159.651 27.0859 159.81 27.1094 159.992 27.1094C160.122 27.1094 160.247 27.1016 160.367 27.0859C160.487 27.0703 160.583 27.0547 160.656 27.0391L160.664 28.4766C160.508 28.5234 160.326 28.5651 160.117 28.6016C159.914 28.638 159.68 28.6562 159.414 28.6562C158.982 28.6562 158.599 28.5807 158.266 28.4297C157.932 28.2734 157.672 28.0208 157.484 27.6719C157.297 27.3229 157.203 26.8594 157.203 26.2812V17.9766ZM164.062 20.0469V28.5H162.172V20.0469H164.062ZM162.047 17.8281C162.047 17.5417 162.141 17.3047 162.328 17.1172C162.521 16.9245 162.786 16.8281 163.125 16.8281C163.458 16.8281 163.721 16.9245 163.914 17.1172C164.107 17.3047 164.203 17.5417 164.203 17.8281C164.203 18.1094 164.107 18.3438 163.914 18.5312C163.721 18.7188 163.458 18.8125 163.125 18.8125C162.786 18.8125 162.521 18.7188 162.328 18.5312C162.141 18.3438 162.047 18.1094 162.047 17.8281ZM168.016 21.6562V28.5H166.133V20.0469H167.93L168.016 21.6562ZM170.602 19.9922L170.586 21.7422C170.471 21.7214 170.346 21.7057 170.211 21.6953C170.081 21.6849 169.951 21.6797 169.82 21.6797C169.497 21.6797 169.214 21.7266 168.969 21.8203C168.724 21.9089 168.518 22.0391 168.352 22.2109C168.19 22.3776 168.065 22.5807 167.977 22.8203C167.888 23.0599 167.836 23.3281 167.82 23.625L167.391 23.6562C167.391 23.125 167.443 22.6328 167.547 22.1797C167.651 21.7266 167.807 21.3281 168.016 20.9844C168.229 20.6406 168.495 20.3724 168.812 20.1797C169.135 19.987 169.508 19.8906 169.93 19.8906C170.044 19.8906 170.167 19.901 170.297 19.9219C170.432 19.9427 170.534 19.9661 170.602 19.9922ZM176.266 26.8047V22.7734C176.266 22.4714 176.211 22.2109 176.102 21.9922C175.992 21.7734 175.826 21.6042 175.602 21.4844C175.383 21.3646 175.107 21.3047 174.773 21.3047C174.466 21.3047 174.201 21.3568 173.977 21.4609C173.753 21.5651 173.578 21.7057 173.453 21.8828C173.328 22.0599 173.266 22.2604 173.266 22.4844H171.391C171.391 22.151 171.471 21.8281 171.633 21.5156C171.794 21.2031 172.029 20.9245 172.336 20.6797C172.643 20.4349 173.01 20.2422 173.438 20.1016C173.865 19.9609 174.344 19.8906 174.875 19.8906C175.51 19.8906 176.073 19.9974 176.562 20.2109C177.057 20.4245 177.445 20.7474 177.727 21.1797C178.013 21.6068 178.156 22.1432 178.156 22.7891V26.5469C178.156 26.9323 178.182 27.2786 178.234 27.5859C178.292 27.888 178.372 28.151 178.477 28.375V28.5H176.547C176.458 28.2969 176.388 28.0391 176.336 27.7266C176.289 27.4089 176.266 27.1016 176.266 26.8047ZM176.539 23.3594L176.555 24.5234H175.203C174.854 24.5234 174.547 24.5573 174.281 24.625C174.016 24.6875 173.794 24.7812 173.617 24.9062C173.44 25.0312 173.307 25.1823 173.219 25.3594C173.13 25.5365 173.086 25.737 173.086 25.9609C173.086 26.1849 173.138 26.3906 173.242 26.5781C173.346 26.7604 173.497 26.9036 173.695 27.0078C173.898 27.112 174.143 27.1641 174.43 27.1641C174.815 27.1641 175.151 27.0859 175.438 26.9297C175.729 26.7682 175.958 26.5729 176.125 26.3438C176.292 26.1094 176.38 25.888 176.391 25.6797L177 26.5156C176.938 26.7292 176.831 26.9583 176.68 27.2031C176.529 27.4479 176.331 27.6823 176.086 27.9062C175.846 28.125 175.557 28.3047 175.219 28.4453C174.885 28.5859 174.5 28.6562 174.062 28.6562C173.51 28.6562 173.018 28.5469 172.586 28.3281C172.154 28.1042 171.815 27.8047 171.57 27.4297C171.326 27.0495 171.203 26.6198 171.203 26.1406C171.203 25.6927 171.286 25.2969 171.453 24.9531C171.625 24.6042 171.875 24.3125 172.203 24.0781C172.536 23.8438 172.943 23.6667 173.422 23.5469C173.901 23.4219 174.448 23.3594 175.062 23.3594H176.539ZM182.016 21.6562V28.5H180.133V20.0469H181.93L182.016 21.6562ZM184.602 19.9922L184.586 21.7422C184.471 21.7214 184.346 21.7057 184.211 21.6953C184.081 21.6849 183.951 21.6797 183.82 21.6797C183.497 21.6797 183.214 21.7266 182.969 21.8203C182.724 21.9089 182.518 22.0391 182.352 22.2109C182.19 22.3776 182.065 22.5807 181.977 22.8203C181.888 23.0599 181.836 23.3281 181.82 23.625L181.391 23.6562C181.391 23.125 181.443 22.6328 181.547 22.1797C181.651 21.7266 181.807 21.3281 182.016 20.9844C182.229 20.6406 182.495 20.3724 182.812 20.1797C183.135 19.987 183.508 19.8906 183.93 19.8906C184.044 19.8906 184.167 19.901 184.297 19.9219C184.432 19.9427 184.534 19.9661 184.602 19.9922ZM191.648 21.7656V28.5H189.766V20.0469H191.539L191.648 21.7656ZM191.344 23.9609L190.703 23.9531C190.703 23.3698 190.776 22.8307 190.922 22.3359C191.068 21.8411 191.281 21.4115 191.562 21.0469C191.844 20.6771 192.193 20.3932 192.609 20.1953C193.031 19.9922 193.518 19.8906 194.07 19.8906C194.456 19.8906 194.807 19.9479 195.125 20.0625C195.448 20.1719 195.727 20.3464 195.961 20.5859C196.201 20.8255 196.383 21.1328 196.508 21.5078C196.638 21.8828 196.703 22.3359 196.703 22.8672V28.5H194.82V23.0312C194.82 22.6198 194.758 22.2969 194.633 22.0625C194.513 21.8281 194.339 21.6615 194.109 21.5625C193.885 21.4583 193.617 21.4062 193.305 21.4062C192.951 21.4062 192.648 21.474 192.398 21.6094C192.154 21.7448 191.953 21.9297 191.797 22.1641C191.641 22.3984 191.526 22.6693 191.453 22.9766C191.38 23.2839 191.344 23.612 191.344 23.9609ZM196.586 23.4609L195.703 23.6562C195.703 23.1458 195.773 22.6641 195.914 22.2109C196.06 21.7526 196.271 21.3516 196.547 21.0078C196.828 20.6589 197.174 20.3854 197.586 20.1875C197.997 19.9896 198.469 19.8906 199 19.8906C199.432 19.8906 199.818 19.9505 200.156 20.0703C200.5 20.1849 200.792 20.3672 201.031 20.6172C201.271 20.8672 201.453 21.1927 201.578 21.5938C201.703 21.9896 201.766 22.4688 201.766 23.0312V28.5H199.875V23.0234C199.875 22.5964 199.812 22.2656 199.688 22.0312C199.568 21.7969 199.396 21.6354 199.172 21.5469C198.948 21.4531 198.68 21.4062 198.367 21.4062C198.076 21.4062 197.818 21.4609 197.594 21.5703C197.375 21.6745 197.19 21.8229 197.039 22.0156C196.888 22.2031 196.773 22.4193 196.695 22.6641C196.622 22.9089 196.586 23.1745 196.586 23.4609ZM205.719 20.0469V28.5H203.828V20.0469H205.719ZM203.703 17.8281C203.703 17.5417 203.797 17.3047 203.984 17.1172C204.177 16.9245 204.443 16.8281 204.781 16.8281C205.115 16.8281 205.378 16.9245 205.57 17.1172C205.763 17.3047 205.859 17.5417 205.859 17.8281C205.859 18.1094 205.763 18.3438 205.57 18.5312C205.378 18.7188 205.115 18.8125 204.781 18.8125C204.443 18.8125 204.177 18.7188 203.984 18.5312C203.797 18.3438 203.703 18.1094 203.703 17.8281ZM214.516 27.0078L216.586 20.0469H218.539L215.602 28.5H214.383L214.516 27.0078ZM212.93 20.0469L215.039 27.0391L215.141 28.5H213.922L210.969 20.0469H212.93ZM219.219 24.3672V24.1875C219.219 23.5781 219.307 23.013 219.484 22.4922C219.661 21.9661 219.917 21.5104 220.25 21.125C220.589 20.7344 221 20.4323 221.484 20.2188C221.974 20 222.526 19.8906 223.141 19.8906C223.76 19.8906 224.312 20 224.797 20.2188C225.286 20.4323 225.701 20.7344 226.039 21.125C226.378 21.5104 226.635 21.9661 226.812 22.4922C226.99 23.013 227.078 23.5781 227.078 24.1875V24.3672C227.078 24.9766 226.99 25.5417 226.812 26.0625C226.635 26.5833 226.378 27.0391 226.039 27.4297C225.701 27.8151 225.289 28.1172 224.805 28.3359C224.32 28.5495 223.771 28.6562 223.156 28.6562C222.536 28.6562 221.982 28.5495 221.492 28.3359C221.008 28.1172 220.596 27.8151 220.258 27.4297C219.919 27.0391 219.661 26.5833 219.484 26.0625C219.307 25.5417 219.219 24.9766 219.219 24.3672ZM221.102 24.1875V24.3672C221.102 24.7474 221.141 25.1068 221.219 25.4453C221.297 25.7839 221.419 26.0807 221.586 26.3359C221.753 26.5911 221.966 26.7917 222.227 26.9375C222.487 27.0833 222.797 27.1562 223.156 27.1562C223.505 27.1562 223.807 27.0833 224.062 26.9375C224.323 26.7917 224.536 26.5911 224.703 26.3359C224.87 26.0807 224.992 25.7839 225.07 25.4453C225.154 25.1068 225.195 24.7474 225.195 24.3672V24.1875C225.195 23.8125 225.154 23.4583 225.07 23.125C224.992 22.7865 224.867 22.487 224.695 22.2266C224.529 21.9661 224.315 21.763 224.055 21.6172C223.799 21.4661 223.495 21.3906 223.141 21.3906C222.786 21.3906 222.479 21.4661 222.219 21.6172C221.964 21.763 221.753 21.9661 221.586 22.2266C221.419 22.487 221.297 22.7865 221.219 23.125C221.141 23.4583 221.102 23.8125 221.102 24.1875ZM232.531 20.0469V21.4219H227.766V20.0469H232.531ZM229.141 17.9766H231.023V26.1641C231.023 26.4245 231.06 26.625 231.133 26.7656C231.211 26.901 231.318 26.9922 231.453 27.0391C231.589 27.0859 231.747 27.1094 231.93 27.1094C232.06 27.1094 232.185 27.1016 232.305 27.0859C232.424 27.0703 232.521 27.0547 232.594 27.0391L232.602 28.4766C232.445 28.5234 232.263 28.5651 232.055 28.6016C231.852 28.638 231.617 28.6562 231.352 28.6562C230.919 28.6562 230.536 28.5807 230.203 28.4297C229.87 28.2734 229.609 28.0208 229.422 27.6719C229.234 27.3229 229.141 26.8594 229.141 26.2812V17.9766ZM233.438 24.3672V24.1875C233.438 23.5781 233.526 23.013 233.703 22.4922C233.88 21.9661 234.135 21.5104 234.469 21.125C234.807 20.7344 235.219 20.4323 235.703 20.2188C236.193 20 236.745 19.8906 237.359 19.8906C237.979 19.8906 238.531 20 239.016 20.2188C239.505 20.4323 239.919 20.7344 240.258 21.125C240.596 21.5104 240.854 21.9661 241.031 22.4922C241.208 23.013 241.297 23.5781 241.297 24.1875V24.3672C241.297 24.9766 241.208 25.5417 241.031 26.0625C240.854 26.5833 240.596 27.0391 240.258 27.4297C239.919 27.8151 239.508 28.1172 239.023 28.3359C238.539 28.5495 237.99 28.6562 237.375 28.6562C236.755 28.6562 236.201 28.5495 235.711 28.3359C235.227 28.1172 234.815 27.8151 234.477 27.4297C234.138 27.0391 233.88 26.5833 233.703 26.0625C233.526 25.5417 233.438 24.9766 233.438 24.3672ZM235.32 24.1875V24.3672C235.32 24.7474 235.359 25.1068 235.438 25.4453C235.516 25.7839 235.638 26.0807 235.805 26.3359C235.971 26.5911 236.185 26.7917 236.445 26.9375C236.706 27.0833 237.016 27.1562 237.375 27.1562C237.724 27.1562 238.026 27.0833 238.281 26.9375C238.542 26.7917 238.755 26.5911 238.922 26.3359C239.089 26.0807 239.211 25.7839 239.289 25.4453C239.372 25.1068 239.414 24.7474 239.414 24.3672V24.1875C239.414 23.8125 239.372 23.4583 239.289 23.125C239.211 22.7865 239.086 22.487 238.914 22.2266C238.747 21.9661 238.534 21.763 238.273 21.6172C238.018 21.4661 237.714 21.3906 237.359 21.3906C237.005 21.3906 236.698 21.4661 236.438 21.6172C236.182 21.763 235.971 21.9661 235.805 22.2266C235.638 22.487 235.516 22.7865 235.438 23.125C235.359 23.4583 235.32 23.8125 235.32 24.1875Z" fill="white"/>
</svg>
